<?xml version="1.0" standalone="no"?><!DOCTYPE svg PUBLIC "-//W3C//DTD SVG 1.1//EN" "http://www.w3.org/Graphics/SVG/1.1/DTD/svg11.dtd"><svg width="400" height="400" class="logo" version="1.1" xmlns="http://www.w3.org/2000/svg" xmlns:xlink="http://www.w3.org/1999/xlink" style="height:400px;width:400px;perspective-origin:200px 200px;transform-origin:200px 200px;"><g transform="translate(200,200)" style="height:auto;overflow-x:visible;overflow-y:visible;width:auto;perspective-origin:0px 0px;transform-origin:0px 0px;"><circle cx="0" cy="0" r="200" class="outer" style="height:auto;overflow-x:visible;overflow-y:visible;width:auto;perspective-origin:0px 0px;transform-origin:0px 0px;fill:rgb(32, 52, 132);r:200px;"/><path d="M62.5,-1.5308084989341916e-14L62.69271262270062,-1.0943053693553284L62.866859388017986,-2.1953591053590835L63.022264893569314,-3.3028569484595707L63.158758523381486,-4.416490629850104L63.27617453284713,-5.535947942911913L63.374352132691726,-6.660912816364252L63.45313557191872,-7.791065389110557L63.51237421970017,-8.92608208676734L63.5519226461796,-10.065635699863396L63.571640702155236,-11.209395463694396L63.57139359761034,-12.357027139819065L63.55105197905923,-13.50819309918172L63.51049200567594,-14.662552406844965L63.44959542417442,-15.819760908317233L63.36824964240797,-16.97947131745699L63.26634780165641,-18.14133330593692L63.143788847569915,-19.30499359424934L63.000477599738105,-20.47009604423494L62.83632481985349,-21.636281753114307L62.65124727843883,-22.803189149003146L62.44516782010782,-23.970454087890328L62.21801542732909,-25.137709952057357L61.96972528266341,-26.30458774991826L61.70023882944493,-27.470716217256452L61.40950383087686,-28.635721919836648L61.09747442751282,-29.79922935736738L60.764111193095104,-30.96086106879125L60.409381188721504,-32.12023773887674L60.03325801531311,-33.27697830608761L59.63572186435506,-34.430700071703086L59.21675956688301,-35.58101881016356L58.776364640688946,-36.727548880613625L58.31453733571933,-37.86990333961585L57.831284677639815,-39.007694055007036L57.32662050954077,-40.140531820867835L56.8005655317584,-41.26802647357793L56.253147339786715,-42.3897870089255L55.68440046025581,-43.5054217002419L55.09436638495283,-44.61453821753057L54.483093602861956,-45.71674374755872L53.85063763020046,-46.811645114880704L53.19706103842839,-47.89884890375996L52.522433480210076,-48.97796158095776L51.826831713305566,-50.04858961935451L51.1103396223714,-51.11033962237142L50.37304823864997,-52.1628184491567L49.61505575752795,-53.20563334050303L48.836467553944075,-54.238392045460174L48.03739619562741,-55.26070294860851L47.21796145414831,-56.27217519795619L46.37829031376397,-57.272418833424226L45.51851697804158,-58.261044915882984L44.638782874242835,-59.23766565670185L43.739236655453304,-60.20189454777601L42.82003420044213,-61.15334649199061L41.881338611236785,-62.091637934085206L40.923320208399105,-63.016386991879145L39.946156523989366,-63.92721358781865L38.950032292204945,-64.8237395808068L37.93513943768233,-65.70558889827564L36.90167706145055,-66.5723876684608L35.8498514245251,-67.42376435283832L34.77987592913292,-68.25934987868202L33.69197109755788,-69.07877777170155L32.58636454859924,-69.88168428871853L31.46329097163446,-70.6677085503396L30.322992098278668,-71.43649267358482L29.165716671635046,-72.1876819044284L27.991720413129517,-72.92092475020995L26.80126598692476,-73.63587311187312L25.594622961909526,-74.33218241598912L24.37206777125844,-75.00951174652172L23.133883669560788,-75.66752397629041L21.88036068751496,-76.30588589808839L20.61179558418744,-76.92426835541151L19.328491796836115,-77.52234637275437L18.030759388296723,-78.09979928542981L16.718914991934867,-78.65631086886746L15.39328175416402,-79.19156946734688L14.05418927453231,-79.70526812212148L12.701973543381644,-80.19710469888828L11.336976877082048,-80.66678201455947L9.959547850847283,-81.11400796329056L8.57004122913673,-81.53849564172093L7.1688178936492,-81.93996347338202L5.756244768917168,-82.3181353322284L4.332694745508365,-82.67274066524674L2.8985466008438,-83.0035146140985L1.4541849176421735,-83.31019813575101L-1.535570013656625e-14,-83.59253812205276L-1.4636122128800315,-83.85028751820798L-2.936250235301192,-84.08320544010598L-4.4175071260126915,-84.2910572904608L-5.906970581462933,-84.47361487371666L-7.404223031353012,-84.63065650967499L-8.908841736473647,-84.76196714579886L-10.420398888809999,-84.86733846815036L-11.938461713898727,-84.94656901091786L-13.46259257541641,-84.99946426448825L-14.992349081984615,-85.02583678202161L-16.527284196169127,-85.02550628448422L-18.066946345654358,-84.99829976409703L-19.610879536572536,-84.94405158615668L-21.158623468964286,-84.862603589186L-22.70971365434919,-84.7538051833719L-24.263681535382347,-84.61751344724817L-25.82005460757235,-84.4535932225814L-27.37835654303664,-84.26191720741821L-28.93810731626691,-84.04236604725267L-30.498823331878793,-83.79482842427282L-32.0600175543182,-83.51920114464554L-33.62119963949535,-83.21538922379959L-35.18187606831878,-82.88330596966684L-36.74155028209772,-82.52287306384213L-38.299722819783064,-82.13402064062271L-39.85589145701642,-81.71668736388814L-41.40955134695218,-81.27082050178328L-42.96019516282322,-80.79637599916511L-44.507313242213606,-80.29331854777746L-46.050393733004796,-79.7616216541158L-47.58892274096117,-79.2012677049456L-49.122384478916004,-78.61224803043943L-50.65026141752466,-77.99456296489579L-52.172034437544724,-77.34822190500626L-53.687182983605844,-76.6732433656358L-55.195185219431124,-75.96965503308272L-56.69551818446889,-75.2374938157851L-58.18765795189522,-74.47680589244139L-59.67107978794725,-73.68764675751217L-61.145258312542694,-72.8700812640737L-62.609667661146695,-72.02418366399007L-64.06378164784003,-71.15003764537586L-65.50707392954631,-70.24773636731908L-66.93901817137385,-69.31738249183535L-68.35908821302634,-68.35908821302631L-69.7667582362376,-67.37297528341358L-71.16150293318331,-66.35917503742289L-72.54279767582351,-65.31782841199143L-73.91011868612784,-64.24908596427417L-75.26294320713575,-63.15310788642416L-76.60074967480304,-62.03006401742309L-77.92301789058516,-60.88013385193996L-79.22922919470822,-59.70350654619489L-80.51886664007624,-58.500380920807494L-81.79141516676523,-57.270965460608956L-83.04636177705146,-56.015478311398546L-84.28319571092297,-54.73414727362523L-85.50140862202143,-53.427209792977095L-86.70049475396182,-52.094912947861246L-87.87995111697656,-50.73751343375753L-89.03927766483017,-49.355277544431715L-90.17797747195101,-47.948481149992666L-91.29555691072422,-46.51740967178095L-92.39152582889237,-45.062358054075276L-93.4653977270073,-43.58363073260628L-94.51668993587798,-42.0815415998655L-95.54492379395808,-40.556413967201024L-96.54962482461679,-39.008580523690284L-97.53032291323625,-37.4383832917819L-98.48655248407826,-35.84617357970059L-99.41785267686322,-34.23231193060783L-100.32376752300291,-32.597168068514804L-101.20384612143037,-30.94112084094227L-102.05764281396743,-29.264558158325702L-102.88471736017203,-27.56787693016241L-103.68463511160714,-25.851482997900913L-104.45696718547136,-24.115791064572072L-105.2012906375334,-22.36122462116276L-105.91718863431012,-20.588215869735237L-106.60425062443,-18.797205643294195L-107.26207250912118,-16.988643322406972L-107.89025681176614,-15.162986748580947L-108.4884128464617,-13.320702134405813L-109.05615688552619,-11.462263970466871L-109.59311232589275,-9.588154929038799L-110.0989098543296,-7.698865764569209L-110.5731876114275,-5.794895210961969L-111.01559135429426,-3.8767498756733643L-111.42577461789655,-1.9449441306322874L-111.80339887498948,1.3691967456605066e-14L-112.14813369457417,1.95755295521726L-112.45965689882325,3.9271777556848635L-112.73765471841563,5.908330125370433L-112.98182194622021,7.900458616268544L-113.19186208926976,9.903004736200918L-113.36748751896596,11.91540307967207L-113.5084196194562,13.937081461757579L-113.61438893412377,15.967461055003936L-113.68513531013271,18.005956529314563L-113.72040804096925,20.051976194798794L-113.71996600692134,22.104922147556227L-113.68357781343917,24.16419041837109L-113.61102192731866,26.229171124286772L-113.5020868106509,28.29924862303291L-113.35657105248076,30.373801670273433L-113.1742834981185,32.45220357964468L-112.95504337604757,34.5338223855516L-112.69868042237376,36.61802100868708L-112.40503500275969,38.704157424241565L-112.07395823179031,40.79158483276532L-111.70531208971478,42.87965183364838L-111.2989695365108,44.96770260117857L-110.85481462321822,47.05507706314036L-110.3727426004887,49.14111108191308L-109.85266002429952,51.22513663802835L-109.29448485877899,53.30648201614466L-108.69814657609318,55.3844719933952L-108.06358625334265,57.45842803006606L-107.39075666641943,59.5276684625581L-106.67962238077475,61.59150869858798L-105.93015983904914,63.64926141457951L-105.1423574455164,65.70023675519869L-104.31621564729433,67.74374253498193L-103.45174701227572,69.77908444200806L-102.54897630373341,71.80556624356309L-101.60794055155462,73.82248999374494L-100.62868912005962,75.82915624295597L-99.61128377236204,77.82486424922831L-98.55579873122711,79.80891219132852L-97.46232073638663,81.78059738358382L-96.33094909826912,83.73921649237535L-95.16179574810515,85.6840657542389L-93.9549852843685,87.61444119551565L-92.71065501551456,89.52963885349361L-91.42895499897871,91.42895499897872L-90.11004807639789,93.31168636023568L-88.7541099050199,95.17713034823512L-87.36132898526547,97.02458528314622L-85.93190668441015,98.85335062200936L-84.46605725635236,100.66272718752614L-82.96400785743704,102.45201739790062L-81.4259985583034,104.22052549766626L-79.85228235172835,105.96755778943202L-78.24312515643531,107.69242286648085L-76.59880581684358,109.39443184615142L-74.91961609872959,111.07289860393537L-73.20586068077704,112.72714000822022L-71.45785714198956,114.35647615560858L-69.67593594494578,115.96023060674221L-67.86044041487268,117.53773062255985L-66.01172671451839,119.08830740091771L-64.13016381480465,120.61129631349887L-62.21613346123991,122.10603714294L-60.27003013607813,123.57187432010089L-58.29226101620573,125.00815716140292L-56.28324592674405,126.41424010616194L-54.24341729035208,127.78948295384106L-52.17322007221991,129.1332511011467L-50.07311172074089,130.444915778893L-47.94356210385342,131.72385428855782L-45.78505344104538,132.96945023845294L-43.598080231012545,134.18109377943324L-41.38314917496819,135.35818184006445L-39.140779095597885,136.50011836117466L-36.87150085165851,137.6063145297089L-34.5758572482181,138.67618901181038L-32.25440294253921,139.70916818504844L-29.907704345605385,140.70468636971455L-27.53633951929426,141.6621860591076L-25.14089806920217,142.58111814872848L-22.721981033124205,143.4609421643056L-20.280200765199005,144.3011264885699L-17.816180815725183,145.10114858670156L-15.330555806660481,145.86049523036664L-12.823971302813192,146.57866272026558L-10.297083678741101,147.25515710711193L-7.750559981370303,147.8894944109623L-5.185077788350165,148.4812008388172L-2.601325062162285,149.0298130004124L9.156370492657317e-15,149.53487812212205L2.6181891205588963,149.9959542588921L5.252524100066689,150.4126105041257L7.902276979883268,150.78442719743967L10.566710208994044,151.1109961302142L13.245076814939898,151.39192074885472L15.936620578833717,151.62681635568802L18.640576214434063,151.81531030741365L21.35616955124494,151.95704221103153L24.082617721612024,152.05166411716792L26.819129351779317,152.09884071072187L29.56490475687369,152.09824949875383L32.31913613977963,152.04958099554025L35.08100779386859,151.95253890471614L37.84969630954123,151.80684029843002L40.62437078454394,151.61221579343487L43.4041930380171,151.3684097240396L46.18831782823073,151.07518031184605L48.97589307396484,150.73229983219707L51.766060079485435,150.33955477726184L54.5579537630702,149.89674601568447L57.350702889033606,149.4036889487245L60.1434303032024,148.86021366281545L62.93525317178703,148.26616507847135L65.7252832235975,147.6214030954699L68.51262699554799,146.92580273424252L71.29638608139346,146.1792542734016L74.07565738364242,145.38166338333676L76.84953336858428,144.53295125581255L79.61710232437294,143.6330547295001L82.37744862210334,142.68192641137767L85.12965297981984,141.67953479393373L87.8727927293894,140.62586436810923L90.60594208617599,139.52091573191566L93.32817242144799,138.3647056946658L96.03855253745009,137.15726737675712L98.73614894507169,135.89865030494562L101.42002614403818,134.5889205030525L104.08924690555524,133.22816057804462L106.74287255733101,131.81646980143134L109.37996327090364,130.3539641859221L111.99957835119542,128.84077655728936L114.60077652821897,127.27705662138366L117.18261625085589,125.66297102624763L119.74415598262844,123.99870341927807L122.2844544993852,122.28445449938518L124.80257118881642,120.5204420641008L127.29756635171891,118.70690105158775L129.76850150492413,116.84408357750394L132.2144396858074,114.93225896667576L134.63444575828922,112.971713779538L137.0275867202435,110.96275183329746L139.3929320122246,108.90569421777907L141.7295538274228,106.80087930591635L144.03652742276046,104.64866275884586L146.31293143103542,102.44941752557142L148.55784817402187,100.20353383716177L150.770363976434,97.91141919544859L152.94956948066124,95.57349835619142L155.094559962178,93.19021330668139L157.20443564553443,90.76202323775256L159.27830202083123,88.28940451017452L161.31527016058166,85.77285061540073L163.314457036864,83.21287213064672L165.27498583866472,80.60999666827807L167.19598628931416,77.96476881948524L169.07659496391474,75.27775009222758L170.91595560666192,72.54951884342675L172.71321944795545,69.78067020539666L174.4675455212012,66.97181600649344L176.17810097919985,64.12358468597394L177.8440614100204,61.23662120305295L179.46461115225608,58.3115869401477L181.0389436095574,55.349159600305995L182.5662615643393,52.35003309880981L184.04577749055792,49.31491744895304L185.47671386545204,46.244538641989216L186.85830348014306,43.13963852125216L188.18978974898943,40.00097465044962L189.47042701758846,36.829320176134296L190.6994808693199,33.62546368435881L191.87622843032514,30.390209051519925L192.999958672815,27.12437528940451L194.06997271659986,23.828796384446292L195.0855841287347,20.504321131208393L196.04611922117303,17.15181296010437L196.95091734632197,13.77214975937814L197.7993311903916,10.366223691359268L198.59072706443195,6.9349410030155365L199.32448519294988,3.479221830826445L200,0Z" class="spiral" style="height:auto;overflow-x:visible;overflow-y:visible;width:auto;perspective-origin:0px 0px;transform-origin:0px 0px;fill:rgb(255, 255, 255);stroke:rgb(255, 0, 0);stroke-width:0px;d:path('M 62.5 -1.53081e-14 L 62.6927 -1.09431 L 62.8669 -2.19536 L 63.0223 -3.30286 L 63.1588 -4.41649 L 63.2762 -5.53595 L 63.3744 -6.66091 L 63.4531 -7.79107 L 63.5124 -8.92608 L 63.5519 -10.0656 L 63.5716 -11.2094 L 63.5714 -12.357 L 63.5511 -13.5082 L 63.5105 -14.6626 L 63.4496 -15.8198 L 63.3682 -16.9795 L 63.2663 -18.1413 L 63.1438 -19.305 L 63.0005 -20.4701 L 62.8363 -21.6363 L 62.6512 -22.8032 L 62.4452 -23.9705 L 62.218 -25.1377 L 61.9697 -26.3046 L 61.7002 -27.4707 L 61.4095 -28.6357 L 61.0975 -29.7992 L 60.7641 -30.9609 L 60.4094 -32.1202 L 60.0333 -33.277 L 59.6357 -34.4307 L 59.2168 -35.581 L 58.7764 -36.7276 L 58.3145 -37.8699 L 57.8313 -39.0077 L 57.3266 -40.1405 L 56.8006 -41.268 L 56.2531 -42.3898 L 55.6844 -43.5054 L 55.0944 -44.6145 L 54.4831 -45.7167 L 53.8506 -46.8116 L 53.1971 -47.8988 L 52.5224 -48.978 L 51.8268 -50.0486 L 51.1103 -51.1103 L 50.373 -52.1628 L 49.6151 -53.2056 L 48.8365 -54.2384 L 48.0374 -55.2607 L 47.218 -56.2722 L 46.3783 -57.2724 L 45.5185 -58.261 L 44.6388 -59.2377 L 43.7392 -60.2019 L 42.82 -61.1533 L 41.8813 -62.0916 L 40.9233 -63.0164 L 39.9462 -63.9272 L 38.95 -64.8237 L 37.9351 -65.7056 L 36.9017 -66.5724 L 35.8498 -67.4238 L 34.7799 -68.2594 L 33.692 -69.0788 L 32.5864 -69.8817 L 31.4633 -70.6677 L 30.323 -71.4365 L 29.1657 -72.1877 L 27.9917 -72.9209 L 26.8013 -73.6359 L 25.5946 -74.3322 L 24.3721 -75.0095 L 23.1339 -75.6675 L 21.8804 -76.3059 L 20.6118 -76.9243 L 19.3285 -77.5223 L 18.0308 -78.0998 L 16.7189 -78.6563 L 15.3933 -79.1916 L 14.0542 -79.7053 L 12.702 -80.1971 L 11.337 -80.6668 L 9.95955 -81.114 L 8.57004 -81.5385 L 7.16882 -81.94 L 5.75624 -82.3181 L 4.33269 -82.6727 L 2.89855 -83.0035 L 1.45418 -83.3102 L -1.53557e-14 -83.5925 L -1.46361 -83.8503 L -2.93625 -84.0832 L -4.41751 -84.2911 L -5.90697 -84.4736 L -7.40422 -84.6307 L -8.90884 -84.762 L -10.4204 -84.8673 L -11.9385 -84.9466 L -13.4626 -84.9995 L -14.9923 -85.0258 L -16.5273 -85.0255 L -18.0669 -84.9983 L -19.6109 -84.9441 L -21.1586 -84.8626 L -22.7097 -84.7538 L -24.2637 -84.6175 L -25.8201 -84.4536 L -27.3784 -84.2619 L -28.9381 -84.0424 L -30.4988 -83.7948 L -32.06 -83.5192 L -33.6212 -83.2154 L -35.1819 -82.8833 L -36.7416 -82.5229 L -38.2997 -82.134 L -39.8559 -81.7167 L -41.4095 -81.2708 L -42.9602 -80.7964 L -44.5073 -80.2933 L -46.0504 -79.7616 L -47.5889 -79.2013 L -49.1224 -78.6123 L -50.6503 -77.9946 L -52.172 -77.3482 L -53.6872 -76.6732 L -55.1952 -75.9697 L -56.6955 -75.2375 L -58.1877 -74.4768 L -59.6711 -73.6876 L -61.1453 -72.8701 L -62.6097 -72.0242 L -64.0638 -71.15 L -65.5071 -70.2477 L -66.939 -69.3174 L -68.3591 -68.3591 L -69.7668 -67.373 L -71.1615 -66.3592 L -72.5428 -65.3178 L -73.9101 -64.2491 L -75.2629 -63.1531 L -76.6007 -62.0301 L -77.923 -60.8801 L -79.2292 -59.7035 L -80.5189 -58.5004 L -81.7914 -57.271 L -83.0464 -56.0155 L -84.2832 -54.7341 L -85.5014 -53.4272 L -86.7005 -52.0949 L -87.88 -50.7375 L -89.0393 -49.3553 L -90.178 -47.9485 L -91.2956 -46.5174 L -92.3915 -45.0624 L -93.4654 -43.5836 L -94.5167 -42.0815 L -95.5449 -40.5564 L -96.5496 -39.0086 L -97.5303 -37.4384 L -98.4865 -35.8462 L -99.4179 -34.2323 L -100.324 -32.5972 L -101.204 -30.9411 L -102.058 -29.2646 L -102.885 -27.5679 L -103.685 -25.8515 L -104.457 -24.1158 L -105.201 -22.3612 L -105.917 -20.5882 L -106.604 -18.7972 L -107.262 -16.9886 L -107.89 -15.163 L -108.488 -13.3207 L -109.056 -11.4623 L -109.593 -9.58815 L -110.099 -7.69887 L -110.573 -5.7949 L -111.016 -3.87675 L -111.426 -1.94494 L -111.803 1.36920e-14 L -112.148 1.95755 L -112.46 3.92718 L -112.738 5.90833 L -112.982 7.90046 L -113.192 9.903 L -113.367 11.9154 L -113.508 13.9371 L -113.614 15.9675 L -113.685 18.006 L -113.72 20.052 L -113.72 22.1049 L -113.684 24.1642 L -113.611 26.2292 L -113.502 28.2992 L -113.357 30.3738 L -113.174 32.4522 L -112.955 34.5338 L -112.699 36.618 L -112.405 38.7042 L -112.074 40.7916 L -111.705 42.8797 L -111.299 44.9677 L -110.855 47.0551 L -110.373 49.1411 L -109.853 51.2251 L -109.294 53.3065 L -108.698 55.3845 L -108.064 57.4584 L -107.391 59.5277 L -106.68 61.5915 L -105.93 63.6493 L -105.142 65.7002 L -104.316 67.7437 L -103.452 69.7791 L -102.549 71.8056 L -101.608 73.8225 L -100.629 75.8292 L -99.6113 77.8249 L -98.5558 79.8089 L -97.4623 81.7806 L -96.3309 83.7392 L -95.1618 85.6841 L -93.955 87.6144 L -92.7107 89.5296 L -91.429 91.429 L -90.11 93.3117 L -88.7541 95.1771 L -87.3613 97.0246 L -85.9319 98.8533 L -84.4661 100.663 L -82.964 102.452 L -81.426 104.221 L -79.8523 105.968 L -78.2431 107.692 L -76.5988 109.394 L -74.9196 111.073 L -73.2059 112.727 L -71.4579 114.356 L -69.6759 115.96 L -67.8604 117.538 L -66.0117 119.088 L -64.1302 120.611 L -62.2161 122.106 L -60.27 123.572 L -58.2923 125.008 L -56.2832 126.414 L -54.2434 127.789 L -52.1732 129.133 L -50.0731 130.445 L -47.9436 131.724 L -45.7851 132.969 L -43.5981 134.181 L -41.3831 135.358 L -39.1408 136.5 L -36.8715 137.606 L -34.5759 138.676 L -32.2544 139.709 L -29.9077 140.705 L -27.5363 141.662 L -25.1409 142.581 L -22.722 143.461 L -20.2802 144.301 L -17.8162 145.101 L -15.3306 145.86 L -12.824 146.579 L -10.2971 147.255 L -7.75056 147.889 L -5.18508 148.481 L -2.60133 149.03 L 9.15637e-15 149.535 L 2.61819 149.996 L 5.25252 150.413 L 7.90228 150.784 L 10.5667 151.111 L 13.2451 151.392 L 15.9366 151.627 L 18.6406 151.815 L 21.3562 151.957 L 24.0826 152.052 L 26.8191 152.099 L 29.5649 152.098 L 32.3191 152.05 L 35.081 151.953 L 37.8497 151.807 L 40.6244 151.612 L 43.4042 151.368 L 46.1883 151.075 L 48.9759 150.732 L 51.7661 150.34 L 54.558 149.897 L 57.3507 149.404 L 60.1434 148.86 L 62.9353 148.266 L 65.7253 147.621 L 68.5126 146.926 L 71.2964 146.179 L 74.0757 145.382 L 76.8495 144.533 L 79.6171 143.633 L 82.3774 142.682 L 85.1297 141.68 L 87.8728 140.626 L 90.6059 139.521 L 93.3282 138.365 L 96.0386 137.157 L 98.7362 135.899 L 101.42 134.589 L 104.089 133.228 L 106.743 131.816 L 109.38 130.354 L 112 128.841 L 114.601 127.277 L 117.183 125.663 L 119.744 123.999 L 122.284 122.284 L 124.803 120.52 L 127.298 118.707 L 129.769 116.844 L 132.214 114.932 L 134.634 112.972 L 137.028 110.963 L 139.393 108.906 L 141.73 106.801 L 144.037 104.649 L 146.313 102.449 L 148.558 100.204 L 150.77 97.9114 L 152.95 95.5735 L 155.095 93.1902 L 157.204 90.762 L 159.278 88.2894 L 161.315 85.7729 L 163.314 83.2129 L 165.275 80.61 L 167.196 77.9648 L 169.077 75.2777 L 170.916 72.5495 L 172.713 69.7807 L 174.468 66.9718 L 176.178 64.1236 L 177.844 61.2366 L 179.465 58.3116 L 181.039 55.3492 L 182.566 52.35 L 184.046 49.3149 L 185.477 46.2445 L 186.858 43.1396 L 188.19 40.001 L 189.47 36.8293 L 190.699 33.6255 L 191.876 30.3902 L 193 27.1244 L 194.07 23.8288 L 195.086 20.5043 L 196.046 17.1518 L 196.951 13.7722 L 197.799 10.3662 L 198.591 6.93494 L 199.324 3.47922 L 200 0 Z');"/><circle cx="0" cy="0" r="62.5" class="inner" style="height:auto;overflow-x:visible;overflow-y:visible;width:auto;perspective-origin:0px 0px;transform-origin:0px 0px;fill:rgb(32, 52, 132);r:62.5px;"/></g></svg>