<?xml version="1.0" standalone="no"?>
<!DOCTYPE svg PUBLIC "-//W3C//DTD SVG 20010904//EN"
 "http://www.w3.org/TR/2001/REC-SVG-20010904/DTD/svg10.dtd">
<svg version="1.0" xmlns="http://www.w3.org/2000/svg"
 width="10667.000000pt" height="10667.000000pt" viewBox="0 0 10667.000000 10667.000000"
 preserveAspectRatio="xMidYMid meet">
<metadata>
Created by potrace 1.11, written by Peter Selinger 2001-2013
</metadata>
<g transform="translate(0.000000,10667.000000) scale(0.100000,-0.100000)"
fill="#000000" stroke="none">
<path d="M52770 106663 c-721 -6 -2019 -51 -2575 -88 -44 -3 -186 -12 -315
-20 -1496 -95 -3008 -256 -4510 -481 -5992 -897 -11770 -2808 -17115 -5662
-7117 -3799 -13314 -9194 -18071 -15732 -5015 -6892 -8289 -14845 -9568
-23245 -580 -3803 -749 -7702 -501 -11560 437 -6800 2146 -13372 5076 -19510
175 -368 659 -1336 844 -1690 1777 -3395 3905 -6581 6349 -9505 890 -1065
1889 -2171 2767 -3065 135 -137 276 -282 313 -321 85 -92 989 -972 1251 -1220
4497 -4243 9647 -7654 15275 -10116 7423 -3248 15495 -4745 23685 -4393 6940
298 13707 1935 19995 4838 689 318 1679 804 2325 1142 3742 1959 7218 4336
10390 7104 5677 4957 10238 11038 13388 17851 2544 5505 4122 11405 4672
17465 96 1063 159 2098 195 3210 10 298 31 1617 27 1622 -1 1 -38 -181 -81
-405 -467 -2420 -1126 -4886 -1934 -7232 -3965 -11515 -11719 -21067 -21837
-26902 -1356 -782 -2837 -1536 -4260 -2168 -5017 -2228 -10305 -3498 -15655
-3759 -810 -40 -1069 -46 -2070 -45 -1024 0 -1382 9 -2225 54 -4931 265 -9734
1408 -14155 3370 -961 426 -2047 965 -2975 1477 -2517 1388 -4878 3067 -6980
4963 -889 801 -1836 1746 -2630 2625 -3147 3479 -5562 7540 -7062 11875 -946
2732 -1526 5561 -1723 8400 -86 1254 -98 2531 -35 3775 245 4769 1581 9349
3898 13365 976 1691 2138 3295 3416 4715 596 662 1349 1416 1996 2000 2187
1973 4646 3546 7297 4669 2634 1115 5418 1764 8218 1915 868 47 1986 40 2860
-19 3842 -260 7537 -1492 10670 -3558 2059 -1358 3842 -3053 5261 -5002 2066
-2839 3297 -6114 3574 -9510 65 -797 72 -1767 20 -2555 -41 -601 -102 -1126
-200 -1718 -25 -147 -45 -269 -45 -272 0 -3 8249 -5 18330 -5 17451 0 18330 1
18330 18 -26 1907 -61 2800 -165 4147 -760 9826 -4213 19194 -10019 27175
-2334 3208 -5040 6171 -8026 8786 -2960 2591 -6156 4823 -9610 6712 -967 529
-2160 1129 -3180 1599 -4192 1935 -8587 3306 -13130 4097 -2480 432 -4943 682
-7525 766 -406 13 -1526 30 -1795 28 -113 -2 -315 -4 -450 -5z"/>
<path d="M52795 69989 c-2885 -93 -5670 -922 -8125 -2419 -909 -554 -1754
-1189 -2577 -1936 -397 -360 -982 -960 -1349 -1384 -1337 -1545 -2362 -3283
-3062 -5190 -1016 -2769 -1272 -5808 -736 -8750 353 -1937 1072 -3840 2094
-5540 1534 -2552 3707 -4638 6330 -6075 281 -153 912 -465 1216 -599 1710
-756 3511 -1215 5359 -1366 378 -30 532 -39 979 -52 1126 -32 2334 64 3486
278 4735 878 8891 3814 11333 8004 323 555 635 1173 892 1765 1139 2628 1577
5546 1265 8425 -456 4203 -2497 8068 -5723 10838 -3160 2713 -7209 4136
-11382 4001z"/>
</g>
</svg>
